<mxfile host="app.diagrams.net" modified="2021-10-13T04:35:43.168Z" agent="5.0 (Windows NT 10.0; Win64; x64) AppleWebKit/537.36 (KHTML, like Gecko) Chrome/94.0.4606.81 Safari/537.36" etag="4j016jvCs6Gx4VccklWd" version="15.5.1" type="github" pages="2">
  <diagram id="R2lEEEUBdFMjLlhIrx00" name="Page-1">
    <mxGraphModel dx="1770" dy="1659" grid="1" gridSize="10" guides="1" tooltips="1" connect="1" arrows="1" fold="1" page="1" pageScale="1" pageWidth="850" pageHeight="1100" math="0" shadow="0" extFonts="Permanent Marker^https://fonts.googleapis.com/css?family=Permanent+Marker">
      <root>
        <mxCell id="0" />
        <mxCell id="1" parent="0" />
        <mxCell id="C-vyLk0tnHw3VtMMgP7b-2" value="MKN" style="shape=table;startSize=30;container=1;collapsible=1;childLayout=tableLayout;fixedRows=1;rowLines=0;fontStyle=1;align=center;resizeLast=1;" parent="1" vertex="1">
          <mxGeometry x="-190" y="410" width="250" height="130" as="geometry" />
        </mxCell>
        <mxCell id="C-vyLk0tnHw3VtMMgP7b-3" value="" style="shape=partialRectangle;collapsible=0;dropTarget=0;pointerEvents=0;fillColor=none;points=[[0,0.5],[1,0.5]];portConstraint=eastwest;top=0;left=0;right=0;bottom=1;" parent="C-vyLk0tnHw3VtMMgP7b-2" vertex="1">
          <mxGeometry y="30" width="250" height="30" as="geometry" />
        </mxCell>
        <mxCell id="C-vyLk0tnHw3VtMMgP7b-4" value="PK" style="shape=partialRectangle;overflow=hidden;connectable=0;fillColor=none;top=0;left=0;bottom=0;right=0;fontStyle=1;" parent="C-vyLk0tnHw3VtMMgP7b-3" vertex="1">
          <mxGeometry width="30" height="30" as="geometry">
            <mxRectangle width="30" height="30" as="alternateBounds" />
          </mxGeometry>
        </mxCell>
        <mxCell id="C-vyLk0tnHw3VtMMgP7b-5" value="mkn_id int NOT NULL " style="shape=partialRectangle;overflow=hidden;connectable=0;fillColor=none;top=0;left=0;bottom=0;right=0;align=left;spacingLeft=6;fontStyle=5;" parent="C-vyLk0tnHw3VtMMgP7b-3" vertex="1">
          <mxGeometry x="30" width="220" height="30" as="geometry">
            <mxRectangle width="220" height="30" as="alternateBounds" />
          </mxGeometry>
        </mxCell>
        <mxCell id="C-vyLk0tnHw3VtMMgP7b-6" value="" style="shape=partialRectangle;collapsible=0;dropTarget=0;pointerEvents=0;fillColor=none;points=[[0,0.5],[1,0.5]];portConstraint=eastwest;top=0;left=0;right=0;bottom=0;" parent="C-vyLk0tnHw3VtMMgP7b-2" vertex="1">
          <mxGeometry y="60" width="250" height="30" as="geometry" />
        </mxCell>
        <mxCell id="C-vyLk0tnHw3VtMMgP7b-7" value="FK1" style="shape=partialRectangle;overflow=hidden;connectable=0;fillColor=none;top=0;left=0;bottom=0;right=0;" parent="C-vyLk0tnHw3VtMMgP7b-6" vertex="1">
          <mxGeometry width="30" height="30" as="geometry">
            <mxRectangle width="30" height="30" as="alternateBounds" />
          </mxGeometry>
        </mxCell>
        <mxCell id="C-vyLk0tnHw3VtMMgP7b-8" value="mkn_ambulance_id" style="shape=partialRectangle;overflow=hidden;connectable=0;fillColor=none;top=0;left=0;bottom=0;right=0;align=left;spacingLeft=6;" parent="C-vyLk0tnHw3VtMMgP7b-6" vertex="1">
          <mxGeometry x="30" width="220" height="30" as="geometry">
            <mxRectangle width="220" height="30" as="alternateBounds" />
          </mxGeometry>
        </mxCell>
        <mxCell id="C-vyLk0tnHw3VtMMgP7b-9" value="" style="shape=partialRectangle;collapsible=0;dropTarget=0;pointerEvents=0;fillColor=none;points=[[0,0.5],[1,0.5]];portConstraint=eastwest;top=0;left=0;right=0;bottom=0;" parent="C-vyLk0tnHw3VtMMgP7b-2" vertex="1">
          <mxGeometry y="90" width="250" height="30" as="geometry" />
        </mxCell>
        <mxCell id="C-vyLk0tnHw3VtMMgP7b-10" value="FK2" style="shape=partialRectangle;overflow=hidden;connectable=0;fillColor=none;top=0;left=0;bottom=0;right=0;" parent="C-vyLk0tnHw3VtMMgP7b-9" vertex="1">
          <mxGeometry width="30" height="30" as="geometry">
            <mxRectangle width="30" height="30" as="alternateBounds" />
          </mxGeometry>
        </mxCell>
        <mxCell id="C-vyLk0tnHw3VtMMgP7b-11" value="mkn_driver_id" style="shape=partialRectangle;overflow=hidden;connectable=0;fillColor=none;top=0;left=0;bottom=0;right=0;align=left;spacingLeft=6;" parent="C-vyLk0tnHw3VtMMgP7b-9" vertex="1">
          <mxGeometry x="30" width="220" height="30" as="geometry">
            <mxRectangle width="220" height="30" as="alternateBounds" />
          </mxGeometry>
        </mxCell>
        <mxCell id="C-vyLk0tnHw3VtMMgP7b-13" value="Admin" style="shape=table;startSize=30;container=1;collapsible=1;childLayout=tableLayout;fixedRows=1;rowLines=0;fontStyle=1;align=center;resizeLast=1;" parent="1" vertex="1">
          <mxGeometry x="110" y="970" width="250" height="160" as="geometry" />
        </mxCell>
        <mxCell id="C-vyLk0tnHw3VtMMgP7b-14" value="" style="shape=partialRectangle;collapsible=0;dropTarget=0;pointerEvents=0;fillColor=none;points=[[0,0.5],[1,0.5]];portConstraint=eastwest;top=0;left=0;right=0;bottom=1;" parent="C-vyLk0tnHw3VtMMgP7b-13" vertex="1">
          <mxGeometry y="30" width="250" height="30" as="geometry" />
        </mxCell>
        <mxCell id="C-vyLk0tnHw3VtMMgP7b-15" value="PK" style="shape=partialRectangle;overflow=hidden;connectable=0;fillColor=none;top=0;left=0;bottom=0;right=0;fontStyle=1;" parent="C-vyLk0tnHw3VtMMgP7b-14" vertex="1">
          <mxGeometry width="30" height="30" as="geometry">
            <mxRectangle width="30" height="30" as="alternateBounds" />
          </mxGeometry>
        </mxCell>
        <mxCell id="C-vyLk0tnHw3VtMMgP7b-16" value="admin_id int NOT NULL " style="shape=partialRectangle;overflow=hidden;connectable=0;fillColor=none;top=0;left=0;bottom=0;right=0;align=left;spacingLeft=6;fontStyle=5;" parent="C-vyLk0tnHw3VtMMgP7b-14" vertex="1">
          <mxGeometry x="30" width="220" height="30" as="geometry">
            <mxRectangle width="220" height="30" as="alternateBounds" />
          </mxGeometry>
        </mxCell>
        <mxCell id="C-vyLk0tnHw3VtMMgP7b-17" value="" style="shape=partialRectangle;collapsible=0;dropTarget=0;pointerEvents=0;fillColor=none;points=[[0,0.5],[1,0.5]];portConstraint=eastwest;top=0;left=0;right=0;bottom=0;" parent="C-vyLk0tnHw3VtMMgP7b-13" vertex="1">
          <mxGeometry y="60" width="250" height="30" as="geometry" />
        </mxCell>
        <mxCell id="C-vyLk0tnHw3VtMMgP7b-18" value="" style="shape=partialRectangle;overflow=hidden;connectable=0;fillColor=none;top=0;left=0;bottom=0;right=0;" parent="C-vyLk0tnHw3VtMMgP7b-17" vertex="1">
          <mxGeometry width="30" height="30" as="geometry">
            <mxRectangle width="30" height="30" as="alternateBounds" />
          </mxGeometry>
        </mxCell>
        <mxCell id="C-vyLk0tnHw3VtMMgP7b-19" value="admin_login_name" style="shape=partialRectangle;overflow=hidden;connectable=0;fillColor=none;top=0;left=0;bottom=0;right=0;align=left;spacingLeft=6;" parent="C-vyLk0tnHw3VtMMgP7b-17" vertex="1">
          <mxGeometry x="30" width="220" height="30" as="geometry">
            <mxRectangle width="220" height="30" as="alternateBounds" />
          </mxGeometry>
        </mxCell>
        <mxCell id="C-vyLk0tnHw3VtMMgP7b-20" value="" style="shape=partialRectangle;collapsible=0;dropTarget=0;pointerEvents=0;fillColor=none;points=[[0,0.5],[1,0.5]];portConstraint=eastwest;top=0;left=0;right=0;bottom=0;" parent="C-vyLk0tnHw3VtMMgP7b-13" vertex="1">
          <mxGeometry y="90" width="250" height="30" as="geometry" />
        </mxCell>
        <mxCell id="C-vyLk0tnHw3VtMMgP7b-21" value="" style="shape=partialRectangle;overflow=hidden;connectable=0;fillColor=none;top=0;left=0;bottom=0;right=0;" parent="C-vyLk0tnHw3VtMMgP7b-20" vertex="1">
          <mxGeometry width="30" height="30" as="geometry">
            <mxRectangle width="30" height="30" as="alternateBounds" />
          </mxGeometry>
        </mxCell>
        <mxCell id="C-vyLk0tnHw3VtMMgP7b-22" value="admin_pw" style="shape=partialRectangle;overflow=hidden;connectable=0;fillColor=none;top=0;left=0;bottom=0;right=0;align=left;spacingLeft=6;" parent="C-vyLk0tnHw3VtMMgP7b-20" vertex="1">
          <mxGeometry x="30" width="220" height="30" as="geometry">
            <mxRectangle width="220" height="30" as="alternateBounds" />
          </mxGeometry>
        </mxCell>
        <mxCell id="yFnRbtlMpNxU06LVUk-2-22" style="shape=partialRectangle;collapsible=0;dropTarget=0;pointerEvents=0;fillColor=none;points=[[0,0.5],[1,0.5]];portConstraint=eastwest;top=0;left=0;right=0;bottom=0;" vertex="1" parent="C-vyLk0tnHw3VtMMgP7b-13">
          <mxGeometry y="120" width="250" height="30" as="geometry" />
        </mxCell>
        <mxCell id="yFnRbtlMpNxU06LVUk-2-23" style="shape=partialRectangle;overflow=hidden;connectable=0;fillColor=none;top=0;left=0;bottom=0;right=0;" vertex="1" parent="yFnRbtlMpNxU06LVUk-2-22">
          <mxGeometry width="30" height="30" as="geometry">
            <mxRectangle width="30" height="30" as="alternateBounds" />
          </mxGeometry>
        </mxCell>
        <mxCell id="yFnRbtlMpNxU06LVUk-2-24" value="admin_details" style="shape=partialRectangle;overflow=hidden;connectable=0;fillColor=none;top=0;left=0;bottom=0;right=0;align=left;spacingLeft=6;" vertex="1" parent="yFnRbtlMpNxU06LVUk-2-22">
          <mxGeometry x="30" width="220" height="30" as="geometry">
            <mxRectangle width="220" height="30" as="alternateBounds" />
          </mxGeometry>
        </mxCell>
        <mxCell id="C-vyLk0tnHw3VtMMgP7b-23" value="Rakyat" style="shape=table;startSize=30;container=1;collapsible=1;childLayout=tableLayout;fixedRows=1;rowLines=0;fontStyle=1;align=center;resizeLast=1;" parent="1" vertex="1">
          <mxGeometry x="120" y="120" width="250" height="190" as="geometry" />
        </mxCell>
        <mxCell id="C-vyLk0tnHw3VtMMgP7b-24" value="" style="shape=partialRectangle;collapsible=0;dropTarget=0;pointerEvents=0;fillColor=none;points=[[0,0.5],[1,0.5]];portConstraint=eastwest;top=0;left=0;right=0;bottom=1;" parent="C-vyLk0tnHw3VtMMgP7b-23" vertex="1">
          <mxGeometry y="30" width="250" height="30" as="geometry" />
        </mxCell>
        <mxCell id="C-vyLk0tnHw3VtMMgP7b-25" value="PK" style="shape=partialRectangle;overflow=hidden;connectable=0;fillColor=none;top=0;left=0;bottom=0;right=0;fontStyle=1;" parent="C-vyLk0tnHw3VtMMgP7b-24" vertex="1">
          <mxGeometry width="30" height="30" as="geometry">
            <mxRectangle width="30" height="30" as="alternateBounds" />
          </mxGeometry>
        </mxCell>
        <mxCell id="C-vyLk0tnHw3VtMMgP7b-26" value="rakyat_id int NOT NULL " style="shape=partialRectangle;overflow=hidden;connectable=0;fillColor=none;top=0;left=0;bottom=0;right=0;align=left;spacingLeft=6;fontStyle=5;" parent="C-vyLk0tnHw3VtMMgP7b-24" vertex="1">
          <mxGeometry x="30" width="220" height="30" as="geometry">
            <mxRectangle width="220" height="30" as="alternateBounds" />
          </mxGeometry>
        </mxCell>
        <mxCell id="Cr6TZLzRTkB6NBVOP9v7-14" style="shape=partialRectangle;collapsible=0;dropTarget=0;pointerEvents=0;fillColor=none;points=[[0,0.5],[1,0.5]];portConstraint=eastwest;top=0;left=0;right=0;bottom=0;" parent="C-vyLk0tnHw3VtMMgP7b-23" vertex="1">
          <mxGeometry y="60" width="250" height="30" as="geometry" />
        </mxCell>
        <mxCell id="Cr6TZLzRTkB6NBVOP9v7-15" value="            " style="shape=partialRectangle;overflow=hidden;connectable=0;fillColor=none;top=0;left=0;bottom=0;right=0;" parent="Cr6TZLzRTkB6NBVOP9v7-14" vertex="1">
          <mxGeometry width="30" height="30" as="geometry">
            <mxRectangle width="30" height="30" as="alternateBounds" />
          </mxGeometry>
        </mxCell>
        <mxCell id="Cr6TZLzRTkB6NBVOP9v7-16" value="rakyat_details" style="shape=partialRectangle;overflow=hidden;connectable=0;fillColor=none;top=0;left=0;bottom=0;right=0;align=left;spacingLeft=6;" parent="Cr6TZLzRTkB6NBVOP9v7-14" vertex="1">
          <mxGeometry x="30" width="220" height="30" as="geometry">
            <mxRectangle width="220" height="30" as="alternateBounds" />
          </mxGeometry>
        </mxCell>
        <mxCell id="Cr6TZLzRTkB6NBVOP9v7-11" style="shape=partialRectangle;collapsible=0;dropTarget=0;pointerEvents=0;fillColor=none;points=[[0,0.5],[1,0.5]];portConstraint=eastwest;top=0;left=0;right=0;bottom=0;" parent="C-vyLk0tnHw3VtMMgP7b-23" vertex="1">
          <mxGeometry y="90" width="250" height="30" as="geometry" />
        </mxCell>
        <mxCell id="Cr6TZLzRTkB6NBVOP9v7-12" style="shape=partialRectangle;overflow=hidden;connectable=0;fillColor=none;top=0;left=0;bottom=0;right=0;" parent="Cr6TZLzRTkB6NBVOP9v7-11" vertex="1">
          <mxGeometry width="30" height="30" as="geometry">
            <mxRectangle width="30" height="30" as="alternateBounds" />
          </mxGeometry>
        </mxCell>
        <mxCell id="Cr6TZLzRTkB6NBVOP9v7-13" value="rakyat_account" style="shape=partialRectangle;overflow=hidden;connectable=0;fillColor=none;top=0;left=0;bottom=0;right=0;align=left;spacingLeft=6;" parent="Cr6TZLzRTkB6NBVOP9v7-11" vertex="1">
          <mxGeometry x="30" width="220" height="30" as="geometry">
            <mxRectangle width="220" height="30" as="alternateBounds" />
          </mxGeometry>
        </mxCell>
        <mxCell id="Cr6TZLzRTkB6NBVOP9v7-8" style="shape=partialRectangle;collapsible=0;dropTarget=0;pointerEvents=0;fillColor=none;points=[[0,0.5],[1,0.5]];portConstraint=eastwest;top=0;left=0;right=0;bottom=0;" parent="C-vyLk0tnHw3VtMMgP7b-23" vertex="1">
          <mxGeometry y="120" width="250" height="30" as="geometry" />
        </mxCell>
        <mxCell id="Cr6TZLzRTkB6NBVOP9v7-9" style="shape=partialRectangle;overflow=hidden;connectable=0;fillColor=none;top=0;left=0;bottom=0;right=0;" parent="Cr6TZLzRTkB6NBVOP9v7-8" vertex="1">
          <mxGeometry width="30" height="30" as="geometry">
            <mxRectangle width="30" height="30" as="alternateBounds" />
          </mxGeometry>
        </mxCell>
        <mxCell id="Cr6TZLzRTkB6NBVOP9v7-10" value="rakyat_health_status" style="shape=partialRectangle;overflow=hidden;connectable=0;fillColor=none;top=0;left=0;bottom=0;right=0;align=left;spacingLeft=6;" parent="Cr6TZLzRTkB6NBVOP9v7-8" vertex="1">
          <mxGeometry x="30" width="220" height="30" as="geometry">
            <mxRectangle width="220" height="30" as="alternateBounds" />
          </mxGeometry>
        </mxCell>
        <mxCell id="yFnRbtlMpNxU06LVUk-2-1" style="shape=partialRectangle;collapsible=0;dropTarget=0;pointerEvents=0;fillColor=none;points=[[0,0.5],[1,0.5]];portConstraint=eastwest;top=0;left=0;right=0;bottom=0;" vertex="1" parent="C-vyLk0tnHw3VtMMgP7b-23">
          <mxGeometry y="150" width="250" height="30" as="geometry" />
        </mxCell>
        <mxCell id="yFnRbtlMpNxU06LVUk-2-2" style="shape=partialRectangle;overflow=hidden;connectable=0;fillColor=none;top=0;left=0;bottom=0;right=0;" vertex="1" parent="yFnRbtlMpNxU06LVUk-2-1">
          <mxGeometry width="30" height="30" as="geometry">
            <mxRectangle width="30" height="30" as="alternateBounds" />
          </mxGeometry>
        </mxCell>
        <mxCell id="yFnRbtlMpNxU06LVUk-2-3" value="rakyat_vaccination_status" style="shape=partialRectangle;overflow=hidden;connectable=0;fillColor=none;top=0;left=0;bottom=0;right=0;align=left;spacingLeft=6;" vertex="1" parent="yFnRbtlMpNxU06LVUk-2-1">
          <mxGeometry x="30" width="220" height="30" as="geometry">
            <mxRectangle width="220" height="30" as="alternateBounds" />
          </mxGeometry>
        </mxCell>
        <mxCell id="Cr6TZLzRTkB6NBVOP9v7-1" value="Business" style="shape=table;startSize=30;container=1;collapsible=1;childLayout=tableLayout;fixedRows=1;rowLines=0;fontStyle=1;align=center;resizeLast=1;" parent="1" vertex="1">
          <mxGeometry x="-130" y="690" width="250" height="220" as="geometry" />
        </mxCell>
        <mxCell id="Cr6TZLzRTkB6NBVOP9v7-2" value="" style="shape=partialRectangle;collapsible=0;dropTarget=0;pointerEvents=0;fillColor=none;points=[[0,0.5],[1,0.5]];portConstraint=eastwest;top=0;left=0;right=0;bottom=1;" parent="Cr6TZLzRTkB6NBVOP9v7-1" vertex="1">
          <mxGeometry y="30" width="250" height="30" as="geometry" />
        </mxCell>
        <mxCell id="Cr6TZLzRTkB6NBVOP9v7-3" value="PK" style="shape=partialRectangle;overflow=hidden;connectable=0;fillColor=none;top=0;left=0;bottom=0;right=0;fontStyle=1;" parent="Cr6TZLzRTkB6NBVOP9v7-2" vertex="1">
          <mxGeometry width="30" height="30" as="geometry">
            <mxRectangle width="30" height="30" as="alternateBounds" />
          </mxGeometry>
        </mxCell>
        <mxCell id="Cr6TZLzRTkB6NBVOP9v7-4" value="business_id int NOT NULL " style="shape=partialRectangle;overflow=hidden;connectable=0;fillColor=none;top=0;left=0;bottom=0;right=0;align=left;spacingLeft=6;fontStyle=5;" parent="Cr6TZLzRTkB6NBVOP9v7-2" vertex="1">
          <mxGeometry x="30" width="220" height="30" as="geometry">
            <mxRectangle width="220" height="30" as="alternateBounds" />
          </mxGeometry>
        </mxCell>
        <mxCell id="Cr6TZLzRTkB6NBVOP9v7-5" value="" style="shape=partialRectangle;collapsible=0;dropTarget=0;pointerEvents=0;fillColor=none;points=[[0,0.5],[1,0.5]];portConstraint=eastwest;top=0;left=0;right=0;bottom=0;" parent="Cr6TZLzRTkB6NBVOP9v7-1" vertex="1">
          <mxGeometry y="60" width="250" height="30" as="geometry" />
        </mxCell>
        <mxCell id="Cr6TZLzRTkB6NBVOP9v7-6" value="" style="shape=partialRectangle;overflow=hidden;connectable=0;fillColor=none;top=0;left=0;bottom=0;right=0;" parent="Cr6TZLzRTkB6NBVOP9v7-5" vertex="1">
          <mxGeometry width="30" height="30" as="geometry">
            <mxRectangle width="30" height="30" as="alternateBounds" />
          </mxGeometry>
        </mxCell>
        <mxCell id="Cr6TZLzRTkB6NBVOP9v7-7" value="business_userName" style="shape=partialRectangle;overflow=hidden;connectable=0;fillColor=none;top=0;left=0;bottom=0;right=0;align=left;spacingLeft=6;" parent="Cr6TZLzRTkB6NBVOP9v7-5" vertex="1">
          <mxGeometry x="30" width="220" height="30" as="geometry">
            <mxRectangle width="220" height="30" as="alternateBounds" />
          </mxGeometry>
        </mxCell>
        <mxCell id="yFnRbtlMpNxU06LVUk-2-16" style="shape=partialRectangle;collapsible=0;dropTarget=0;pointerEvents=0;fillColor=none;points=[[0,0.5],[1,0.5]];portConstraint=eastwest;top=0;left=0;right=0;bottom=0;" vertex="1" parent="Cr6TZLzRTkB6NBVOP9v7-1">
          <mxGeometry y="90" width="250" height="30" as="geometry" />
        </mxCell>
        <mxCell id="yFnRbtlMpNxU06LVUk-2-17" style="shape=partialRectangle;overflow=hidden;connectable=0;fillColor=none;top=0;left=0;bottom=0;right=0;" vertex="1" parent="yFnRbtlMpNxU06LVUk-2-16">
          <mxGeometry width="30" height="30" as="geometry">
            <mxRectangle width="30" height="30" as="alternateBounds" />
          </mxGeometry>
        </mxCell>
        <mxCell id="yFnRbtlMpNxU06LVUk-2-18" value="business_password" style="shape=partialRectangle;overflow=hidden;connectable=0;fillColor=none;top=0;left=0;bottom=0;right=0;align=left;spacingLeft=6;" vertex="1" parent="yFnRbtlMpNxU06LVUk-2-16">
          <mxGeometry x="30" width="220" height="30" as="geometry">
            <mxRectangle width="220" height="30" as="alternateBounds" />
          </mxGeometry>
        </mxCell>
        <mxCell id="yFnRbtlMpNxU06LVUk-2-13" style="shape=partialRectangle;collapsible=0;dropTarget=0;pointerEvents=0;fillColor=none;points=[[0,0.5],[1,0.5]];portConstraint=eastwest;top=0;left=0;right=0;bottom=0;" vertex="1" parent="Cr6TZLzRTkB6NBVOP9v7-1">
          <mxGeometry y="120" width="250" height="30" as="geometry" />
        </mxCell>
        <mxCell id="yFnRbtlMpNxU06LVUk-2-14" style="shape=partialRectangle;overflow=hidden;connectable=0;fillColor=none;top=0;left=0;bottom=0;right=0;" vertex="1" parent="yFnRbtlMpNxU06LVUk-2-13">
          <mxGeometry width="30" height="30" as="geometry">
            <mxRectangle width="30" height="30" as="alternateBounds" />
          </mxGeometry>
        </mxCell>
        <mxCell id="yFnRbtlMpNxU06LVUk-2-15" value="business_details" style="shape=partialRectangle;overflow=hidden;connectable=0;fillColor=none;top=0;left=0;bottom=0;right=0;align=left;spacingLeft=6;" vertex="1" parent="yFnRbtlMpNxU06LVUk-2-13">
          <mxGeometry x="30" width="220" height="30" as="geometry">
            <mxRectangle width="220" height="30" as="alternateBounds" />
          </mxGeometry>
        </mxCell>
        <mxCell id="yFnRbtlMpNxU06LVUk-2-10" style="shape=partialRectangle;collapsible=0;dropTarget=0;pointerEvents=0;fillColor=none;points=[[0,0.5],[1,0.5]];portConstraint=eastwest;top=0;left=0;right=0;bottom=0;" vertex="1" parent="Cr6TZLzRTkB6NBVOP9v7-1">
          <mxGeometry y="150" width="250" height="30" as="geometry" />
        </mxCell>
        <mxCell id="yFnRbtlMpNxU06LVUk-2-11" style="shape=partialRectangle;overflow=hidden;connectable=0;fillColor=none;top=0;left=0;bottom=0;right=0;" vertex="1" parent="yFnRbtlMpNxU06LVUk-2-10">
          <mxGeometry width="30" height="30" as="geometry">
            <mxRectangle width="30" height="30" as="alternateBounds" />
          </mxGeometry>
        </mxCell>
        <mxCell id="yFnRbtlMpNxU06LVUk-2-12" value="business_qr_code" style="shape=partialRectangle;overflow=hidden;connectable=0;fillColor=none;top=0;left=0;bottom=0;right=0;align=left;spacingLeft=6;" vertex="1" parent="yFnRbtlMpNxU06LVUk-2-10">
          <mxGeometry x="30" width="220" height="30" as="geometry">
            <mxRectangle width="220" height="30" as="alternateBounds" />
          </mxGeometry>
        </mxCell>
        <mxCell id="yFnRbtlMpNxU06LVUk-2-7" style="shape=partialRectangle;collapsible=0;dropTarget=0;pointerEvents=0;fillColor=none;points=[[0,0.5],[1,0.5]];portConstraint=eastwest;top=0;left=0;right=0;bottom=0;" vertex="1" parent="Cr6TZLzRTkB6NBVOP9v7-1">
          <mxGeometry y="180" width="250" height="30" as="geometry" />
        </mxCell>
        <mxCell id="yFnRbtlMpNxU06LVUk-2-8" style="shape=partialRectangle;overflow=hidden;connectable=0;fillColor=none;top=0;left=0;bottom=0;right=0;" vertex="1" parent="yFnRbtlMpNxU06LVUk-2-7">
          <mxGeometry width="30" height="30" as="geometry">
            <mxRectangle width="30" height="30" as="alternateBounds" />
          </mxGeometry>
        </mxCell>
        <mxCell id="yFnRbtlMpNxU06LVUk-2-9" value="business_location" style="shape=partialRectangle;overflow=hidden;connectable=0;fillColor=none;top=0;left=0;bottom=0;right=0;align=left;spacingLeft=6;" vertex="1" parent="yFnRbtlMpNxU06LVUk-2-7">
          <mxGeometry x="30" width="220" height="30" as="geometry">
            <mxRectangle width="220" height="30" as="alternateBounds" />
          </mxGeometry>
        </mxCell>
        <mxCell id="yFnRbtlMpNxU06LVUk-2-25" value="Rakyat Location" style="shape=table;startSize=30;container=1;collapsible=1;childLayout=tableLayout;fixedRows=1;rowLines=0;fontStyle=1;align=center;resizeLast=1;" vertex="1" parent="1">
          <mxGeometry x="480" y="-90" width="250" height="160" as="geometry" />
        </mxCell>
        <mxCell id="yFnRbtlMpNxU06LVUk-2-26" value="" style="shape=partialRectangle;collapsible=0;dropTarget=0;pointerEvents=0;fillColor=none;points=[[0,0.5],[1,0.5]];portConstraint=eastwest;top=0;left=0;right=0;bottom=1;" vertex="1" parent="yFnRbtlMpNxU06LVUk-2-25">
          <mxGeometry y="30" width="250" height="30" as="geometry" />
        </mxCell>
        <mxCell id="yFnRbtlMpNxU06LVUk-2-27" value="PK" style="shape=partialRectangle;overflow=hidden;connectable=0;fillColor=none;top=0;left=0;bottom=0;right=0;fontStyle=1;" vertex="1" parent="yFnRbtlMpNxU06LVUk-2-26">
          <mxGeometry width="30" height="30" as="geometry">
            <mxRectangle width="30" height="30" as="alternateBounds" />
          </mxGeometry>
        </mxCell>
        <mxCell id="yFnRbtlMpNxU06LVUk-2-28" value="rakyat_location_id int NOT NULL " style="shape=partialRectangle;overflow=hidden;connectable=0;fillColor=none;top=0;left=0;bottom=0;right=0;align=left;spacingLeft=6;fontStyle=5;" vertex="1" parent="yFnRbtlMpNxU06LVUk-2-26">
          <mxGeometry x="30" width="220" height="30" as="geometry">
            <mxRectangle width="220" height="30" as="alternateBounds" />
          </mxGeometry>
        </mxCell>
        <mxCell id="yFnRbtlMpNxU06LVUk-2-29" value="" style="shape=partialRectangle;collapsible=0;dropTarget=0;pointerEvents=0;fillColor=none;points=[[0,0.5],[1,0.5]];portConstraint=eastwest;top=0;left=0;right=0;bottom=0;" vertex="1" parent="yFnRbtlMpNxU06LVUk-2-25">
          <mxGeometry y="60" width="250" height="30" as="geometry" />
        </mxCell>
        <mxCell id="yFnRbtlMpNxU06LVUk-2-30" value="FK1" style="shape=partialRectangle;overflow=hidden;connectable=0;fillColor=none;top=0;left=0;bottom=0;right=0;" vertex="1" parent="yFnRbtlMpNxU06LVUk-2-29">
          <mxGeometry width="30" height="30" as="geometry">
            <mxRectangle width="30" height="30" as="alternateBounds" />
          </mxGeometry>
        </mxCell>
        <mxCell id="yFnRbtlMpNxU06LVUk-2-31" value="business_checkin_ID" style="shape=partialRectangle;overflow=hidden;connectable=0;fillColor=none;top=0;left=0;bottom=0;right=0;align=left;spacingLeft=6;" vertex="1" parent="yFnRbtlMpNxU06LVUk-2-29">
          <mxGeometry x="30" width="220" height="30" as="geometry">
            <mxRectangle width="220" height="30" as="alternateBounds" />
          </mxGeometry>
        </mxCell>
        <mxCell id="yFnRbtlMpNxU06LVUk-2-63" style="shape=partialRectangle;collapsible=0;dropTarget=0;pointerEvents=0;fillColor=none;points=[[0,0.5],[1,0.5]];portConstraint=eastwest;top=0;left=0;right=0;bottom=0;" vertex="1" parent="yFnRbtlMpNxU06LVUk-2-25">
          <mxGeometry y="90" width="250" height="30" as="geometry" />
        </mxCell>
        <mxCell id="yFnRbtlMpNxU06LVUk-2-64" value="FK2" style="shape=partialRectangle;overflow=hidden;connectable=0;fillColor=none;top=0;left=0;bottom=0;right=0;" vertex="1" parent="yFnRbtlMpNxU06LVUk-2-63">
          <mxGeometry width="30" height="30" as="geometry">
            <mxRectangle width="30" height="30" as="alternateBounds" />
          </mxGeometry>
        </mxCell>
        <mxCell id="yFnRbtlMpNxU06LVUk-2-65" value="rakyat_id" style="shape=partialRectangle;overflow=hidden;connectable=0;fillColor=none;top=0;left=0;bottom=0;right=0;align=left;spacingLeft=6;" vertex="1" parent="yFnRbtlMpNxU06LVUk-2-63">
          <mxGeometry x="30" width="220" height="30" as="geometry">
            <mxRectangle width="220" height="30" as="alternateBounds" />
          </mxGeometry>
        </mxCell>
        <mxCell id="yFnRbtlMpNxU06LVUk-2-44" style="shape=partialRectangle;collapsible=0;dropTarget=0;pointerEvents=0;fillColor=none;points=[[0,0.5],[1,0.5]];portConstraint=eastwest;top=0;left=0;right=0;bottom=0;" vertex="1" parent="yFnRbtlMpNxU06LVUk-2-25">
          <mxGeometry y="120" width="250" height="30" as="geometry" />
        </mxCell>
        <mxCell id="yFnRbtlMpNxU06LVUk-2-45" style="shape=partialRectangle;overflow=hidden;connectable=0;fillColor=none;top=0;left=0;bottom=0;right=0;" vertex="1" parent="yFnRbtlMpNxU06LVUk-2-44">
          <mxGeometry width="30" height="30" as="geometry">
            <mxRectangle width="30" height="30" as="alternateBounds" />
          </mxGeometry>
        </mxCell>
        <mxCell id="yFnRbtlMpNxU06LVUk-2-46" value="rakyat_checkin_date_time" style="shape=partialRectangle;overflow=hidden;connectable=0;fillColor=none;top=0;left=0;bottom=0;right=0;align=left;spacingLeft=6;" vertex="1" parent="yFnRbtlMpNxU06LVUk-2-44">
          <mxGeometry x="30" width="220" height="30" as="geometry">
            <mxRectangle width="220" height="30" as="alternateBounds" />
          </mxGeometry>
        </mxCell>
        <mxCell id="yFnRbtlMpNxU06LVUk-2-50" value="Rakyat Login" style="shape=table;startSize=30;container=1;collapsible=1;childLayout=tableLayout;fixedRows=1;rowLines=0;fontStyle=1;align=center;resizeLast=1;" vertex="1" parent="1">
          <mxGeometry x="810" y="135" width="250" height="160" as="geometry" />
        </mxCell>
        <mxCell id="yFnRbtlMpNxU06LVUk-2-51" value="" style="shape=partialRectangle;collapsible=0;dropTarget=0;pointerEvents=0;fillColor=none;points=[[0,0.5],[1,0.5]];portConstraint=eastwest;top=0;left=0;right=0;bottom=1;" vertex="1" parent="yFnRbtlMpNxU06LVUk-2-50">
          <mxGeometry y="30" width="250" height="30" as="geometry" />
        </mxCell>
        <mxCell id="yFnRbtlMpNxU06LVUk-2-52" value="PK" style="shape=partialRectangle;overflow=hidden;connectable=0;fillColor=none;top=0;left=0;bottom=0;right=0;fontStyle=1;" vertex="1" parent="yFnRbtlMpNxU06LVUk-2-51">
          <mxGeometry width="30" height="30" as="geometry">
            <mxRectangle width="30" height="30" as="alternateBounds" />
          </mxGeometry>
        </mxCell>
        <mxCell id="yFnRbtlMpNxU06LVUk-2-53" value="rakyat_login_id int NOT NULL " style="shape=partialRectangle;overflow=hidden;connectable=0;fillColor=none;top=0;left=0;bottom=0;right=0;align=left;spacingLeft=6;fontStyle=5;" vertex="1" parent="yFnRbtlMpNxU06LVUk-2-51">
          <mxGeometry x="30" width="220" height="30" as="geometry">
            <mxRectangle width="220" height="30" as="alternateBounds" />
          </mxGeometry>
        </mxCell>
        <mxCell id="yFnRbtlMpNxU06LVUk-2-60" style="shape=partialRectangle;collapsible=0;dropTarget=0;pointerEvents=0;fillColor=none;points=[[0,0.5],[1,0.5]];portConstraint=eastwest;top=0;left=0;right=0;bottom=0;" vertex="1" parent="yFnRbtlMpNxU06LVUk-2-50">
          <mxGeometry y="60" width="250" height="30" as="geometry" />
        </mxCell>
        <mxCell id="yFnRbtlMpNxU06LVUk-2-61" value="FK1" style="shape=partialRectangle;overflow=hidden;connectable=0;fillColor=none;top=0;left=0;bottom=0;right=0;" vertex="1" parent="yFnRbtlMpNxU06LVUk-2-60">
          <mxGeometry width="30" height="30" as="geometry">
            <mxRectangle width="30" height="30" as="alternateBounds" />
          </mxGeometry>
        </mxCell>
        <mxCell id="yFnRbtlMpNxU06LVUk-2-62" value="rakyat_id" style="shape=partialRectangle;overflow=hidden;connectable=0;fillColor=none;top=0;left=0;bottom=0;right=0;align=left;spacingLeft=6;" vertex="1" parent="yFnRbtlMpNxU06LVUk-2-60">
          <mxGeometry x="30" width="220" height="30" as="geometry">
            <mxRectangle width="220" height="30" as="alternateBounds" />
          </mxGeometry>
        </mxCell>
        <mxCell id="yFnRbtlMpNxU06LVUk-2-54" value="" style="shape=partialRectangle;collapsible=0;dropTarget=0;pointerEvents=0;fillColor=none;points=[[0,0.5],[1,0.5]];portConstraint=eastwest;top=0;left=0;right=0;bottom=0;" vertex="1" parent="yFnRbtlMpNxU06LVUk-2-50">
          <mxGeometry y="90" width="250" height="30" as="geometry" />
        </mxCell>
        <mxCell id="yFnRbtlMpNxU06LVUk-2-55" value="" style="shape=partialRectangle;overflow=hidden;connectable=0;fillColor=none;top=0;left=0;bottom=0;right=0;" vertex="1" parent="yFnRbtlMpNxU06LVUk-2-54">
          <mxGeometry width="30" height="30" as="geometry">
            <mxRectangle width="30" height="30" as="alternateBounds" />
          </mxGeometry>
        </mxCell>
        <mxCell id="yFnRbtlMpNxU06LVUk-2-56" value="rakyat_username" style="shape=partialRectangle;overflow=hidden;connectable=0;fillColor=none;top=0;left=0;bottom=0;right=0;align=left;spacingLeft=6;" vertex="1" parent="yFnRbtlMpNxU06LVUk-2-54">
          <mxGeometry x="30" width="220" height="30" as="geometry">
            <mxRectangle width="220" height="30" as="alternateBounds" />
          </mxGeometry>
        </mxCell>
        <mxCell id="yFnRbtlMpNxU06LVUk-2-57" style="shape=partialRectangle;collapsible=0;dropTarget=0;pointerEvents=0;fillColor=none;points=[[0,0.5],[1,0.5]];portConstraint=eastwest;top=0;left=0;right=0;bottom=0;" vertex="1" parent="yFnRbtlMpNxU06LVUk-2-50">
          <mxGeometry y="120" width="250" height="30" as="geometry" />
        </mxCell>
        <mxCell id="yFnRbtlMpNxU06LVUk-2-58" style="shape=partialRectangle;overflow=hidden;connectable=0;fillColor=none;top=0;left=0;bottom=0;right=0;" vertex="1" parent="yFnRbtlMpNxU06LVUk-2-57">
          <mxGeometry width="30" height="30" as="geometry">
            <mxRectangle width="30" height="30" as="alternateBounds" />
          </mxGeometry>
        </mxCell>
        <mxCell id="yFnRbtlMpNxU06LVUk-2-59" value="rakyat_password" style="shape=partialRectangle;overflow=hidden;connectable=0;fillColor=none;top=0;left=0;bottom=0;right=0;align=left;spacingLeft=6;" vertex="1" parent="yFnRbtlMpNxU06LVUk-2-57">
          <mxGeometry x="30" width="220" height="30" as="geometry">
            <mxRectangle width="220" height="30" as="alternateBounds" />
          </mxGeometry>
        </mxCell>
        <mxCell id="yFnRbtlMpNxU06LVUk-2-66" value="MKN_Ambulance" style="shape=table;startSize=30;container=1;collapsible=1;childLayout=tableLayout;fixedRows=1;rowLines=0;fontStyle=1;align=center;resizeLast=1;" vertex="1" parent="1">
          <mxGeometry x="440" y="390" width="250" height="160" as="geometry" />
        </mxCell>
        <mxCell id="yFnRbtlMpNxU06LVUk-2-67" value="" style="shape=partialRectangle;collapsible=0;dropTarget=0;pointerEvents=0;fillColor=none;points=[[0,0.5],[1,0.5]];portConstraint=eastwest;top=0;left=0;right=0;bottom=1;" vertex="1" parent="yFnRbtlMpNxU06LVUk-2-66">
          <mxGeometry y="30" width="250" height="30" as="geometry" />
        </mxCell>
        <mxCell id="yFnRbtlMpNxU06LVUk-2-68" value="PK" style="shape=partialRectangle;overflow=hidden;connectable=0;fillColor=none;top=0;left=0;bottom=0;right=0;fontStyle=1;" vertex="1" parent="yFnRbtlMpNxU06LVUk-2-67">
          <mxGeometry width="30" height="30" as="geometry">
            <mxRectangle width="30" height="30" as="alternateBounds" />
          </mxGeometry>
        </mxCell>
        <mxCell id="yFnRbtlMpNxU06LVUk-2-69" value="mkn_ambulance_id int NOT NULL " style="shape=partialRectangle;overflow=hidden;connectable=0;fillColor=none;top=0;left=0;bottom=0;right=0;align=left;spacingLeft=6;fontStyle=5;" vertex="1" parent="yFnRbtlMpNxU06LVUk-2-67">
          <mxGeometry x="30" width="220" height="30" as="geometry">
            <mxRectangle width="220" height="30" as="alternateBounds" />
          </mxGeometry>
        </mxCell>
        <mxCell id="yFnRbtlMpNxU06LVUk-2-73" value="" style="shape=partialRectangle;collapsible=0;dropTarget=0;pointerEvents=0;fillColor=none;points=[[0,0.5],[1,0.5]];portConstraint=eastwest;top=0;left=0;right=0;bottom=0;" vertex="1" parent="yFnRbtlMpNxU06LVUk-2-66">
          <mxGeometry y="60" width="250" height="30" as="geometry" />
        </mxCell>
        <mxCell id="yFnRbtlMpNxU06LVUk-2-74" value="FK1" style="shape=partialRectangle;overflow=hidden;connectable=0;fillColor=none;top=0;left=0;bottom=0;right=0;" vertex="1" parent="yFnRbtlMpNxU06LVUk-2-73">
          <mxGeometry width="30" height="30" as="geometry">
            <mxRectangle width="30" height="30" as="alternateBounds" />
          </mxGeometry>
        </mxCell>
        <mxCell id="yFnRbtlMpNxU06LVUk-2-75" value="mkn_driver_id" style="shape=partialRectangle;overflow=hidden;connectable=0;fillColor=none;top=0;left=0;bottom=0;right=0;align=left;spacingLeft=6;" vertex="1" parent="yFnRbtlMpNxU06LVUk-2-73">
          <mxGeometry x="30" width="220" height="30" as="geometry">
            <mxRectangle width="220" height="30" as="alternateBounds" />
          </mxGeometry>
        </mxCell>
        <mxCell id="yFnRbtlMpNxU06LVUk-2-70" value="" style="shape=partialRectangle;collapsible=0;dropTarget=0;pointerEvents=0;fillColor=none;points=[[0,0.5],[1,0.5]];portConstraint=eastwest;top=0;left=0;right=0;bottom=0;" vertex="1" parent="yFnRbtlMpNxU06LVUk-2-66">
          <mxGeometry y="90" width="250" height="30" as="geometry" />
        </mxCell>
        <mxCell id="yFnRbtlMpNxU06LVUk-2-71" value="" style="shape=partialRectangle;overflow=hidden;connectable=0;fillColor=none;top=0;left=0;bottom=0;right=0;" vertex="1" parent="yFnRbtlMpNxU06LVUk-2-70">
          <mxGeometry width="30" height="30" as="geometry">
            <mxRectangle width="30" height="30" as="alternateBounds" />
          </mxGeometry>
        </mxCell>
        <mxCell id="yFnRbtlMpNxU06LVUk-2-72" value="mkn_ambulance_vehicle" style="shape=partialRectangle;overflow=hidden;connectable=0;fillColor=none;top=0;left=0;bottom=0;right=0;align=left;spacingLeft=6;" vertex="1" parent="yFnRbtlMpNxU06LVUk-2-70">
          <mxGeometry x="30" width="220" height="30" as="geometry">
            <mxRectangle width="220" height="30" as="alternateBounds" />
          </mxGeometry>
        </mxCell>
        <mxCell id="yFnRbtlMpNxU06LVUk-2-86" style="shape=partialRectangle;collapsible=0;dropTarget=0;pointerEvents=0;fillColor=none;points=[[0,0.5],[1,0.5]];portConstraint=eastwest;top=0;left=0;right=0;bottom=0;" vertex="1" parent="yFnRbtlMpNxU06LVUk-2-66">
          <mxGeometry y="120" width="250" height="30" as="geometry" />
        </mxCell>
        <mxCell id="yFnRbtlMpNxU06LVUk-2-87" style="shape=partialRectangle;overflow=hidden;connectable=0;fillColor=none;top=0;left=0;bottom=0;right=0;" vertex="1" parent="yFnRbtlMpNxU06LVUk-2-86">
          <mxGeometry width="30" height="30" as="geometry">
            <mxRectangle width="30" height="30" as="alternateBounds" />
          </mxGeometry>
        </mxCell>
        <mxCell id="yFnRbtlMpNxU06LVUk-2-88" value="mkn_ambulance_location" style="shape=partialRectangle;overflow=hidden;connectable=0;fillColor=none;top=0;left=0;bottom=0;right=0;align=left;spacingLeft=6;" vertex="1" parent="yFnRbtlMpNxU06LVUk-2-86">
          <mxGeometry x="30" width="220" height="30" as="geometry">
            <mxRectangle width="220" height="30" as="alternateBounds" />
          </mxGeometry>
        </mxCell>
        <mxCell id="yFnRbtlMpNxU06LVUk-2-76" value="MKN_driver" style="shape=table;startSize=30;container=1;collapsible=1;childLayout=tableLayout;fixedRows=1;rowLines=0;fontStyle=1;align=center;resizeLast=1;" vertex="1" parent="1">
          <mxGeometry x="890" y="450" width="250" height="100" as="geometry" />
        </mxCell>
        <mxCell id="yFnRbtlMpNxU06LVUk-2-77" value="" style="shape=partialRectangle;collapsible=0;dropTarget=0;pointerEvents=0;fillColor=none;points=[[0,0.5],[1,0.5]];portConstraint=eastwest;top=0;left=0;right=0;bottom=1;" vertex="1" parent="yFnRbtlMpNxU06LVUk-2-76">
          <mxGeometry y="30" width="250" height="30" as="geometry" />
        </mxCell>
        <mxCell id="yFnRbtlMpNxU06LVUk-2-78" value="PK" style="shape=partialRectangle;overflow=hidden;connectable=0;fillColor=none;top=0;left=0;bottom=0;right=0;fontStyle=1;" vertex="1" parent="yFnRbtlMpNxU06LVUk-2-77">
          <mxGeometry width="30" height="30" as="geometry">
            <mxRectangle width="30" height="30" as="alternateBounds" />
          </mxGeometry>
        </mxCell>
        <mxCell id="yFnRbtlMpNxU06LVUk-2-79" value="mkn_driver_id int NOT NULL " style="shape=partialRectangle;overflow=hidden;connectable=0;fillColor=none;top=0;left=0;bottom=0;right=0;align=left;spacingLeft=6;fontStyle=5;" vertex="1" parent="yFnRbtlMpNxU06LVUk-2-77">
          <mxGeometry x="30" width="220" height="30" as="geometry">
            <mxRectangle width="220" height="30" as="alternateBounds" />
          </mxGeometry>
        </mxCell>
        <mxCell id="yFnRbtlMpNxU06LVUk-2-80" value="" style="shape=partialRectangle;collapsible=0;dropTarget=0;pointerEvents=0;fillColor=none;points=[[0,0.5],[1,0.5]];portConstraint=eastwest;top=0;left=0;right=0;bottom=0;" vertex="1" parent="yFnRbtlMpNxU06LVUk-2-76">
          <mxGeometry y="60" width="250" height="30" as="geometry" />
        </mxCell>
        <mxCell id="yFnRbtlMpNxU06LVUk-2-81" value="" style="shape=partialRectangle;overflow=hidden;connectable=0;fillColor=none;top=0;left=0;bottom=0;right=0;" vertex="1" parent="yFnRbtlMpNxU06LVUk-2-80">
          <mxGeometry width="30" height="30" as="geometry">
            <mxRectangle width="30" height="30" as="alternateBounds" />
          </mxGeometry>
        </mxCell>
        <mxCell id="yFnRbtlMpNxU06LVUk-2-82" value="mkn_driver_name" style="shape=partialRectangle;overflow=hidden;connectable=0;fillColor=none;top=0;left=0;bottom=0;right=0;align=left;spacingLeft=6;" vertex="1" parent="yFnRbtlMpNxU06LVUk-2-80">
          <mxGeometry x="30" width="220" height="30" as="geometry">
            <mxRectangle width="220" height="30" as="alternateBounds" />
          </mxGeometry>
        </mxCell>
        <mxCell id="yFnRbtlMpNxU06LVUk-2-90" value="Business_checkin_History" style="shape=table;startSize=30;container=1;collapsible=1;childLayout=tableLayout;fixedRows=1;rowLines=0;fontStyle=1;align=center;resizeLast=1;" vertex="1" parent="1">
          <mxGeometry x="570" y="750" width="250" height="280" as="geometry" />
        </mxCell>
        <mxCell id="yFnRbtlMpNxU06LVUk-2-91" value="" style="shape=partialRectangle;collapsible=0;dropTarget=0;pointerEvents=0;fillColor=none;points=[[0,0.5],[1,0.5]];portConstraint=eastwest;top=0;left=0;right=0;bottom=1;" vertex="1" parent="yFnRbtlMpNxU06LVUk-2-90">
          <mxGeometry y="30" width="250" height="30" as="geometry" />
        </mxCell>
        <mxCell id="yFnRbtlMpNxU06LVUk-2-92" value="PK" style="shape=partialRectangle;overflow=hidden;connectable=0;fillColor=none;top=0;left=0;bottom=0;right=0;fontStyle=1;" vertex="1" parent="yFnRbtlMpNxU06LVUk-2-91">
          <mxGeometry width="30" height="30" as="geometry">
            <mxRectangle width="30" height="30" as="alternateBounds" />
          </mxGeometry>
        </mxCell>
        <mxCell id="yFnRbtlMpNxU06LVUk-2-93" value="business_checkin_id int NOT NULL " style="shape=partialRectangle;overflow=hidden;connectable=0;fillColor=none;top=0;left=0;bottom=0;right=0;align=left;spacingLeft=6;fontStyle=5;" vertex="1" parent="yFnRbtlMpNxU06LVUk-2-91">
          <mxGeometry x="30" width="220" height="30" as="geometry">
            <mxRectangle width="220" height="30" as="alternateBounds" />
          </mxGeometry>
        </mxCell>
        <mxCell id="yFnRbtlMpNxU06LVUk-2-97" style="shape=partialRectangle;collapsible=0;dropTarget=0;pointerEvents=0;fillColor=none;points=[[0,0.5],[1,0.5]];portConstraint=eastwest;top=0;left=0;right=0;bottom=0;" vertex="1" parent="yFnRbtlMpNxU06LVUk-2-90">
          <mxGeometry y="60" width="250" height="30" as="geometry" />
        </mxCell>
        <mxCell id="yFnRbtlMpNxU06LVUk-2-98" value="FK1" style="shape=partialRectangle;overflow=hidden;connectable=0;fillColor=none;top=0;left=0;bottom=0;right=0;" vertex="1" parent="yFnRbtlMpNxU06LVUk-2-97">
          <mxGeometry width="30" height="30" as="geometry">
            <mxRectangle width="30" height="30" as="alternateBounds" />
          </mxGeometry>
        </mxCell>
        <mxCell id="yFnRbtlMpNxU06LVUk-2-99" value="rakyat_ID" style="shape=partialRectangle;overflow=hidden;connectable=0;fillColor=none;top=0;left=0;bottom=0;right=0;align=left;spacingLeft=6;" vertex="1" parent="yFnRbtlMpNxU06LVUk-2-97">
          <mxGeometry x="30" width="220" height="30" as="geometry">
            <mxRectangle width="220" height="30" as="alternateBounds" />
          </mxGeometry>
        </mxCell>
        <mxCell id="yFnRbtlMpNxU06LVUk-2-94" value="" style="shape=partialRectangle;collapsible=0;dropTarget=0;pointerEvents=0;fillColor=none;points=[[0,0.5],[1,0.5]];portConstraint=eastwest;top=0;left=0;right=0;bottom=0;" vertex="1" parent="yFnRbtlMpNxU06LVUk-2-90">
          <mxGeometry y="90" width="250" height="30" as="geometry" />
        </mxCell>
        <mxCell id="yFnRbtlMpNxU06LVUk-2-95" value="" style="shape=partialRectangle;overflow=hidden;connectable=0;fillColor=none;top=0;left=0;bottom=0;right=0;" vertex="1" parent="yFnRbtlMpNxU06LVUk-2-94">
          <mxGeometry width="30" height="30" as="geometry">
            <mxRectangle width="30" height="30" as="alternateBounds" />
          </mxGeometry>
        </mxCell>
        <mxCell id="yFnRbtlMpNxU06LVUk-2-96" value="rakyat_checkin_date_time" style="shape=partialRectangle;overflow=hidden;connectable=0;fillColor=none;top=0;left=0;bottom=0;right=0;align=left;spacingLeft=6;" vertex="1" parent="yFnRbtlMpNxU06LVUk-2-94">
          <mxGeometry x="30" width="220" height="30" as="geometry">
            <mxRectangle width="220" height="30" as="alternateBounds" />
          </mxGeometry>
        </mxCell>
        <mxCell id="yFnRbtlMpNxU06LVUk-2-135" style="shape=partialRectangle;collapsible=0;dropTarget=0;pointerEvents=0;fillColor=none;points=[[0,0.5],[1,0.5]];portConstraint=eastwest;top=0;left=0;right=0;bottom=0;" vertex="1" parent="yFnRbtlMpNxU06LVUk-2-90">
          <mxGeometry y="120" width="250" height="30" as="geometry" />
        </mxCell>
        <mxCell id="yFnRbtlMpNxU06LVUk-2-136" style="shape=partialRectangle;overflow=hidden;connectable=0;fillColor=none;top=0;left=0;bottom=0;right=0;" vertex="1" parent="yFnRbtlMpNxU06LVUk-2-135">
          <mxGeometry width="30" height="30" as="geometry">
            <mxRectangle width="30" height="30" as="alternateBounds" />
          </mxGeometry>
        </mxCell>
        <mxCell id="yFnRbtlMpNxU06LVUk-2-137" value="rakyat_vaccination_status" style="shape=partialRectangle;overflow=hidden;connectable=0;fillColor=none;top=0;left=0;bottom=0;right=0;align=left;spacingLeft=6;" vertex="1" parent="yFnRbtlMpNxU06LVUk-2-135">
          <mxGeometry x="30" width="220" height="30" as="geometry">
            <mxRectangle width="220" height="30" as="alternateBounds" />
          </mxGeometry>
        </mxCell>
        <mxCell id="yFnRbtlMpNxU06LVUk-2-129" style="shape=partialRectangle;collapsible=0;dropTarget=0;pointerEvents=0;fillColor=none;points=[[0,0.5],[1,0.5]];portConstraint=eastwest;top=0;left=0;right=0;bottom=0;" vertex="1" parent="yFnRbtlMpNxU06LVUk-2-90">
          <mxGeometry y="150" width="250" height="30" as="geometry" />
        </mxCell>
        <mxCell id="yFnRbtlMpNxU06LVUk-2-130" style="shape=partialRectangle;overflow=hidden;connectable=0;fillColor=none;top=0;left=0;bottom=0;right=0;" vertex="1" parent="yFnRbtlMpNxU06LVUk-2-129">
          <mxGeometry width="30" height="30" as="geometry">
            <mxRectangle width="30" height="30" as="alternateBounds" />
          </mxGeometry>
        </mxCell>
        <mxCell id="yFnRbtlMpNxU06LVUk-2-131" value="rakyat_health_status" style="shape=partialRectangle;overflow=hidden;connectable=0;fillColor=none;top=0;left=0;bottom=0;right=0;align=left;spacingLeft=6;" vertex="1" parent="yFnRbtlMpNxU06LVUk-2-129">
          <mxGeometry x="30" width="220" height="30" as="geometry">
            <mxRectangle width="220" height="30" as="alternateBounds" />
          </mxGeometry>
        </mxCell>
        <mxCell id="yFnRbtlMpNxU06LVUk-2-139" style="shape=partialRectangle;collapsible=0;dropTarget=0;pointerEvents=0;fillColor=none;points=[[0,0.5],[1,0.5]];portConstraint=eastwest;top=0;left=0;right=0;bottom=0;" vertex="1" parent="yFnRbtlMpNxU06LVUk-2-90">
          <mxGeometry y="180" width="250" height="30" as="geometry" />
        </mxCell>
        <mxCell id="yFnRbtlMpNxU06LVUk-2-140" value="FK2" style="shape=partialRectangle;overflow=hidden;connectable=0;fillColor=none;top=0;left=0;bottom=0;right=0;" vertex="1" parent="yFnRbtlMpNxU06LVUk-2-139">
          <mxGeometry width="30" height="30" as="geometry">
            <mxRectangle width="30" height="30" as="alternateBounds" />
          </mxGeometry>
        </mxCell>
        <mxCell id="yFnRbtlMpNxU06LVUk-2-141" value="business_ID" style="shape=partialRectangle;overflow=hidden;connectable=0;fillColor=none;top=0;left=0;bottom=0;right=0;align=left;spacingLeft=6;" vertex="1" parent="yFnRbtlMpNxU06LVUk-2-139">
          <mxGeometry x="30" width="220" height="30" as="geometry">
            <mxRectangle width="220" height="30" as="alternateBounds" />
          </mxGeometry>
        </mxCell>
        <mxCell id="yFnRbtlMpNxU06LVUk-2-110" value="" style="edgeStyle=entityRelationEdgeStyle;fontSize=12;html=1;endArrow=ERoneToMany;rounded=0;exitX=1;exitY=0.5;exitDx=0;exitDy=0;entryX=0;entryY=0.5;entryDx=0;entryDy=0;" edge="1" parent="1" source="C-vyLk0tnHw3VtMMgP7b-24" target="yFnRbtlMpNxU06LVUk-2-63">
          <mxGeometry width="100" height="100" relative="1" as="geometry">
            <mxPoint x="310" y="170" as="sourcePoint" />
            <mxPoint x="410" y="70" as="targetPoint" />
          </mxGeometry>
        </mxCell>
        <mxCell id="yFnRbtlMpNxU06LVUk-2-114" value="" style="edgeStyle=entityRelationEdgeStyle;fontSize=12;html=1;endArrow=ERoneToMany;rounded=0;curved=1;exitX=1;exitY=0.5;exitDx=0;exitDy=0;entryX=0;entryY=0.5;entryDx=0;entryDy=0;" edge="1" parent="1" source="C-vyLk0tnHw3VtMMgP7b-9" target="yFnRbtlMpNxU06LVUk-2-67">
          <mxGeometry width="100" height="100" relative="1" as="geometry">
            <mxPoint x="140" y="570" as="sourcePoint" />
            <mxPoint x="240" y="470" as="targetPoint" />
          </mxGeometry>
        </mxCell>
        <mxCell id="yFnRbtlMpNxU06LVUk-2-116" value="" style="edgeStyle=orthogonalEdgeStyle;fontSize=12;html=1;endArrow=ERmany;startArrow=ERmany;rounded=0;curved=1;exitX=-0.021;exitY=-0.178;exitDx=0;exitDy=0;exitPerimeter=0;entryX=0;entryY=1;entryDx=0;entryDy=0;" edge="1" parent="1" source="yFnRbtlMpNxU06LVUk-2-91" target="C-vyLk0tnHw3VtMMgP7b-23">
          <mxGeometry width="100" height="100" relative="1" as="geometry">
            <mxPoint x="340" y="860" as="sourcePoint" />
            <mxPoint x="110" y="290" as="targetPoint" />
            <Array as="points">
              <mxPoint x="110" y="775" />
              <mxPoint x="110" y="310" />
            </Array>
          </mxGeometry>
        </mxCell>
        <mxCell id="yFnRbtlMpNxU06LVUk-2-118" value="" style="edgeStyle=isometricEdgeStyle;fontSize=12;html=1;endArrow=ERoneToMany;rounded=0;exitX=0;exitY=0.5;exitDx=0;exitDy=0;entryX=1;entryY=0.5;entryDx=0;entryDy=0;" edge="1" parent="1" source="yFnRbtlMpNxU06LVUk-2-77" target="yFnRbtlMpNxU06LVUk-2-73">
          <mxGeometry width="100" height="100" relative="1" as="geometry">
            <mxPoint x="830" y="490" as="sourcePoint" />
            <mxPoint x="750" y="560" as="targetPoint" />
          </mxGeometry>
        </mxCell>
        <mxCell id="yFnRbtlMpNxU06LVUk-2-125" value="" style="edgeStyle=entityRelationEdgeStyle;fontSize=12;html=1;endArrow=ERmandOne;startArrow=ERmandOne;rounded=0;exitX=1;exitY=0.5;exitDx=0;exitDy=0;entryX=0;entryY=0.5;entryDx=0;entryDy=0;" edge="1" parent="1" source="Cr6TZLzRTkB6NBVOP9v7-2" target="yFnRbtlMpNxU06LVUk-2-122">
          <mxGeometry width="100" height="100" relative="1" as="geometry">
            <mxPoint x="250" y="920" as="sourcePoint" />
            <mxPoint x="350" y="820" as="targetPoint" />
          </mxGeometry>
        </mxCell>
        <mxCell id="yFnRbtlMpNxU06LVUk-2-126" value="" style="edgeStyle=entityRelationEdgeStyle;fontSize=12;html=1;endArrow=ERmandOne;startArrow=ERmandOne;rounded=0;exitX=1;exitY=0.5;exitDx=0;exitDy=0;entryX=0;entryY=0.5;entryDx=0;entryDy=0;" edge="1" parent="1" source="Cr6TZLzRTkB6NBVOP9v7-14" target="yFnRbtlMpNxU06LVUk-2-51">
          <mxGeometry width="100" height="100" relative="1" as="geometry">
            <mxPoint x="530" y="340" as="sourcePoint" />
            <mxPoint x="630" y="240" as="targetPoint" />
          </mxGeometry>
        </mxCell>
        <mxCell id="yFnRbtlMpNxU06LVUk-2-127" value="" style="endArrow=none;html=1;rounded=0;exitX=0.75;exitY=1;exitDx=0;exitDy=0;entryX=0.939;entryY=-0.024;entryDx=0;entryDy=0;entryPerimeter=0;" edge="1" parent="1" source="yFnRbtlMpNxU06LVUk-2-25" target="yFnRbtlMpNxU06LVUk-2-90">
          <mxGeometry relative="1" as="geometry">
            <mxPoint x="570" y="230" as="sourcePoint" />
            <mxPoint x="800" y="520" as="targetPoint" />
          </mxGeometry>
        </mxCell>
        <mxCell id="yFnRbtlMpNxU06LVUk-2-128" value="" style="endArrow=none;html=1;rounded=0;exitX=0.446;exitY=0.01;exitDx=0;exitDy=0;exitPerimeter=0;entryX=0;entryY=0.5;entryDx=0;entryDy=0;" edge="1" parent="1" source="C-vyLk0tnHw3VtMMgP7b-2" target="Cr6TZLzRTkB6NBVOP9v7-8">
          <mxGeometry relative="1" as="geometry">
            <mxPoint x="-100" y="310" as="sourcePoint" />
            <mxPoint x="60" y="310" as="targetPoint" />
          </mxGeometry>
        </mxCell>
        <mxCell id="yFnRbtlMpNxU06LVUk-2-138" value="" style="endArrow=none;html=1;rounded=0;exitX=1.013;exitY=-0.133;exitDx=0;exitDy=0;exitPerimeter=0;entryX=-0.016;entryY=-0.133;entryDx=0;entryDy=0;entryPerimeter=0;" edge="1" parent="1" source="Cr6TZLzRTkB6NBVOP9v7-5" target="yFnRbtlMpNxU06LVUk-2-97">
          <mxGeometry relative="1" as="geometry">
            <mxPoint x="280" y="830" as="sourcePoint" />
            <mxPoint x="440" y="830" as="targetPoint" />
          </mxGeometry>
        </mxCell>
      </root>
    </mxGraphModel>
  </diagram>
  <diagram id="JjcdaLMiUThwf7lldrfz" name="Page-2">
    <mxGraphModel dx="1967" dy="1779" grid="1" gridSize="10" guides="1" tooltips="1" connect="1" arrows="1" fold="1" page="1" pageScale="1" pageWidth="850" pageHeight="1100" math="0" shadow="0">
      <root>
        <mxCell id="Q_c3H6H86OWCeRdgw1Fb-0" />
        <mxCell id="Q_c3H6H86OWCeRdgw1Fb-1" parent="Q_c3H6H86OWCeRdgw1Fb-0" />
        <mxCell id="Q_c3H6H86OWCeRdgw1Fb-2" value="Customer" style="whiteSpace=wrap;html=1;align=center;" vertex="1" parent="Q_c3H6H86OWCeRdgw1Fb-1">
          <mxGeometry x="80" y="30" width="100" height="40" as="geometry" />
        </mxCell>
        <mxCell id="Q_c3H6H86OWCeRdgw1Fb-3" value="Restaurant" style="whiteSpace=wrap;html=1;align=center;" vertex="1" parent="Q_c3H6H86OWCeRdgw1Fb-1">
          <mxGeometry x="360" y="440" width="100" height="40" as="geometry" />
        </mxCell>
        <mxCell id="Q_c3H6H86OWCeRdgw1Fb-4" value="Rider" style="whiteSpace=wrap;html=1;align=center;" vertex="1" parent="Q_c3H6H86OWCeRdgw1Fb-1">
          <mxGeometry x="690" y="310" width="100" height="40" as="geometry" />
        </mxCell>
        <mxCell id="Q_c3H6H86OWCeRdgw1Fb-5" value="Payment" style="whiteSpace=wrap;html=1;align=center;" vertex="1" parent="Q_c3H6H86OWCeRdgw1Fb-1">
          <mxGeometry x="30" y="300" width="100" height="40" as="geometry" />
        </mxCell>
        <mxCell id="Q_c3H6H86OWCeRdgw1Fb-6" value="see" style="shape=rhombus;perimeter=rhombusPerimeter;whiteSpace=wrap;html=1;align=center;" vertex="1" parent="Q_c3H6H86OWCeRdgw1Fb-1">
          <mxGeometry x="270" y="20" width="120" height="60" as="geometry" />
        </mxCell>
        <mxCell id="Q_c3H6H86OWCeRdgw1Fb-8" value="cart" style="whiteSpace=wrap;html=1;align=center;" vertex="1" parent="Q_c3H6H86OWCeRdgw1Fb-1">
          <mxGeometry x="720" y="30" width="100" height="40" as="geometry" />
        </mxCell>
        <mxCell id="Q_c3H6H86OWCeRdgw1Fb-47" style="edgeStyle=orthogonalEdgeStyle;curved=1;rounded=0;orthogonalLoop=1;jettySize=auto;html=1;exitX=1;exitY=0.25;exitDx=0;exitDy=0;" edge="1" parent="Q_c3H6H86OWCeRdgw1Fb-1" source="Q_c3H6H86OWCeRdgw1Fb-9">
          <mxGeometry relative="1" as="geometry">
            <mxPoint x="570" y="-100" as="targetPoint" />
          </mxGeometry>
        </mxCell>
        <mxCell id="Q_c3H6H86OWCeRdgw1Fb-9" value="Menu" style="whiteSpace=wrap;html=1;align=center;" vertex="1" parent="Q_c3H6H86OWCeRdgw1Fb-1">
          <mxGeometry x="280" y="-140" width="100" height="40" as="geometry" />
        </mxCell>
        <mxCell id="Q_c3H6H86OWCeRdgw1Fb-10" value="Name" style="ellipse;whiteSpace=wrap;html=1;align=center;" vertex="1" parent="Q_c3H6H86OWCeRdgw1Fb-1">
          <mxGeometry x="-90" y="-40" width="100" height="40" as="geometry" />
        </mxCell>
        <mxCell id="Q_c3H6H86OWCeRdgw1Fb-11" value="Email" style="ellipse;whiteSpace=wrap;html=1;align=center;" vertex="1" parent="Q_c3H6H86OWCeRdgw1Fb-1">
          <mxGeometry x="-140" y="20" width="100" height="40" as="geometry" />
        </mxCell>
        <mxCell id="Q_c3H6H86OWCeRdgw1Fb-12" value="Phone" style="ellipse;whiteSpace=wrap;html=1;align=center;" vertex="1" parent="Q_c3H6H86OWCeRdgw1Fb-1">
          <mxGeometry x="-100" y="130" width="100" height="40" as="geometry" />
        </mxCell>
        <mxCell id="Q_c3H6H86OWCeRdgw1Fb-13" value="Address" style="ellipse;whiteSpace=wrap;html=1;align=center;" vertex="1" parent="Q_c3H6H86OWCeRdgw1Fb-1">
          <mxGeometry x="50" y="140" width="100" height="40" as="geometry" />
        </mxCell>
        <mxCell id="Q_c3H6H86OWCeRdgw1Fb-15" value="Saved Cards" style="ellipse;whiteSpace=wrap;html=1;align=center;" vertex="1" parent="Q_c3H6H86OWCeRdgw1Fb-1">
          <mxGeometry x="60" y="-90" width="100" height="40" as="geometry" />
        </mxCell>
        <mxCell id="Q_c3H6H86OWCeRdgw1Fb-16" value="" style="endArrow=none;html=1;rounded=0;entryX=0.5;entryY=1;entryDx=0;entryDy=0;exitX=0.607;exitY=-0.042;exitDx=0;exitDy=0;exitPerimeter=0;" edge="1" parent="Q_c3H6H86OWCeRdgw1Fb-1" source="Q_c3H6H86OWCeRdgw1Fb-2" target="Q_c3H6H86OWCeRdgw1Fb-15">
          <mxGeometry relative="1" as="geometry">
            <mxPoint x="160" as="sourcePoint" />
            <mxPoint x="320" as="targetPoint" />
          </mxGeometry>
        </mxCell>
        <mxCell id="Q_c3H6H86OWCeRdgw1Fb-20" value="" style="endArrow=none;html=1;rounded=0;edgeStyle=orthogonalEdgeStyle;curved=1;exitX=1;exitY=0.5;exitDx=0;exitDy=0;entryX=0;entryY=0;entryDx=0;entryDy=0;" edge="1" parent="Q_c3H6H86OWCeRdgw1Fb-1" source="Q_c3H6H86OWCeRdgw1Fb-10" target="Q_c3H6H86OWCeRdgw1Fb-2">
          <mxGeometry relative="1" as="geometry">
            <mxPoint x="160" as="sourcePoint" />
            <mxPoint x="320" as="targetPoint" />
          </mxGeometry>
        </mxCell>
        <mxCell id="Q_c3H6H86OWCeRdgw1Fb-21" value="" style="endArrow=none;html=1;rounded=0;edgeStyle=orthogonalEdgeStyle;curved=1;exitX=1;exitY=0.5;exitDx=0;exitDy=0;entryX=0;entryY=0.75;entryDx=0;entryDy=0;" edge="1" parent="Q_c3H6H86OWCeRdgw1Fb-1" target="Q_c3H6H86OWCeRdgw1Fb-2">
          <mxGeometry relative="1" as="geometry">
            <mxPoint x="-40" y="40" as="sourcePoint" />
            <mxPoint x="30" y="90" as="targetPoint" />
          </mxGeometry>
        </mxCell>
        <mxCell id="Q_c3H6H86OWCeRdgw1Fb-22" value="" style="endArrow=none;html=1;rounded=0;edgeStyle=orthogonalEdgeStyle;curved=1;exitX=0.587;exitY=-0.042;exitDx=0;exitDy=0;entryX=0;entryY=1;entryDx=0;entryDy=0;exitPerimeter=0;" edge="1" parent="Q_c3H6H86OWCeRdgw1Fb-1" source="Q_c3H6H86OWCeRdgw1Fb-12" target="Q_c3H6H86OWCeRdgw1Fb-2">
          <mxGeometry relative="1" as="geometry">
            <mxPoint x="-30" y="80" as="sourcePoint" />
            <mxPoint x="40" y="130" as="targetPoint" />
          </mxGeometry>
        </mxCell>
        <mxCell id="Q_c3H6H86OWCeRdgw1Fb-23" value="" style="endArrow=none;html=1;rounded=0;edgeStyle=orthogonalEdgeStyle;curved=1;exitX=0.5;exitY=1;exitDx=0;exitDy=0;entryX=0.613;entryY=0.058;entryDx=0;entryDy=0;entryPerimeter=0;" edge="1" parent="Q_c3H6H86OWCeRdgw1Fb-1" source="Q_c3H6H86OWCeRdgw1Fb-2" target="Q_c3H6H86OWCeRdgw1Fb-13">
          <mxGeometry relative="1" as="geometry">
            <mxPoint x="40" y="10" as="sourcePoint" />
            <mxPoint x="110" y="60" as="targetPoint" />
          </mxGeometry>
        </mxCell>
        <mxCell id="Q_c3H6H86OWCeRdgw1Fb-24" value="" style="endArrow=none;html=1;rounded=0;curved=1;" edge="1" parent="Q_c3H6H86OWCeRdgw1Fb-1">
          <mxGeometry relative="1" as="geometry">
            <mxPoint x="180" y="50" as="sourcePoint" />
            <mxPoint x="270" y="50" as="targetPoint" />
          </mxGeometry>
        </mxCell>
        <mxCell id="Q_c3H6H86OWCeRdgw1Fb-25" value="" style="endArrow=none;html=1;rounded=0;edgeStyle=orthogonalEdgeStyle;curved=1;exitX=0.4;exitY=1;exitDx=0;exitDy=0;entryX=0;entryY=0;entryDx=0;entryDy=0;exitPerimeter=0;" edge="1" parent="Q_c3H6H86OWCeRdgw1Fb-1" source="Q_c3H6H86OWCeRdgw1Fb-9">
          <mxGeometry relative="1" as="geometry">
            <mxPoint x="260" y="-30" as="sourcePoint" />
            <mxPoint x="330" y="20" as="targetPoint" />
          </mxGeometry>
        </mxCell>
        <mxCell id="Q_c3H6H86OWCeRdgw1Fb-26" value="Restaurant_id" style="ellipse;whiteSpace=wrap;html=1;align=center;fontStyle=4;" vertex="1" parent="Q_c3H6H86OWCeRdgw1Fb-1">
          <mxGeometry x="180" y="-240" width="100" height="40" as="geometry" />
        </mxCell>
        <mxCell id="Q_c3H6H86OWCeRdgw1Fb-27" value="quantity" style="ellipse;whiteSpace=wrap;html=1;align=center;" vertex="1" parent="Q_c3H6H86OWCeRdgw1Fb-1">
          <mxGeometry x="340" y="-270" width="100" height="40" as="geometry" />
        </mxCell>
        <mxCell id="Q_c3H6H86OWCeRdgw1Fb-28" value="food_id" style="ellipse;whiteSpace=wrap;html=1;align=center;fontStyle=4;" vertex="1" parent="Q_c3H6H86OWCeRdgw1Fb-1">
          <mxGeometry x="460" y="-200" width="100" height="40" as="geometry" />
        </mxCell>
        <mxCell id="Q_c3H6H86OWCeRdgw1Fb-29" value="" style="endArrow=none;html=1;rounded=0;edgeStyle=orthogonalEdgeStyle;curved=1;exitX=0.4;exitY=1;exitDx=0;exitDy=0;entryX=0;entryY=0.25;entryDx=0;entryDy=0;exitPerimeter=0;" edge="1" parent="Q_c3H6H86OWCeRdgw1Fb-1" target="Q_c3H6H86OWCeRdgw1Fb-9">
          <mxGeometry relative="1" as="geometry">
            <mxPoint x="240" y="-200" as="sourcePoint" />
            <mxPoint x="250" y="-80" as="targetPoint" />
          </mxGeometry>
        </mxCell>
        <mxCell id="Q_c3H6H86OWCeRdgw1Fb-30" value="" style="endArrow=none;html=1;rounded=0;edgeStyle=orthogonalEdgeStyle;curved=1;exitX=0.4;exitY=1;exitDx=0;exitDy=0;entryX=0.5;entryY=0;entryDx=0;entryDy=0;exitPerimeter=0;" edge="1" parent="Q_c3H6H86OWCeRdgw1Fb-1" target="Q_c3H6H86OWCeRdgw1Fb-9">
          <mxGeometry relative="1" as="geometry">
            <mxPoint x="385" y="-230" as="sourcePoint" />
            <mxPoint x="395" y="-110" as="targetPoint" />
          </mxGeometry>
        </mxCell>
        <mxCell id="Q_c3H6H86OWCeRdgw1Fb-31" value="" style="endArrow=none;html=1;rounded=0;edgeStyle=orthogonalEdgeStyle;curved=1;exitX=0;exitY=0.5;exitDx=0;exitDy=0;" edge="1" parent="Q_c3H6H86OWCeRdgw1Fb-1" source="Q_c3H6H86OWCeRdgw1Fb-28" target="Q_c3H6H86OWCeRdgw1Fb-9">
          <mxGeometry relative="1" as="geometry">
            <mxPoint x="440" y="-190.00000000000023" as="sourcePoint" />
            <mxPoint x="385" y="-100.00000000000023" as="targetPoint" />
          </mxGeometry>
        </mxCell>
        <mxCell id="Q_c3H6H86OWCeRdgw1Fb-34" value="" style="endArrow=none;html=1;rounded=0;edgeStyle=orthogonalEdgeStyle;curved=1;exitX=1;exitY=0.5;exitDx=0;exitDy=0;entryX=0;entryY=0.25;entryDx=0;entryDy=0;" edge="1" parent="Q_c3H6H86OWCeRdgw1Fb-1" source="Q_c3H6H86OWCeRdgw1Fb-9">
          <mxGeometry relative="1" as="geometry">
            <mxPoint x="330" y="-90.00000000000023" as="sourcePoint" />
            <mxPoint x="530" y="39.99999999999977" as="targetPoint" />
            <Array as="points">
              <mxPoint x="380" y="-90" />
              <mxPoint x="450" y="-90" />
              <mxPoint x="450" y="30" />
              <mxPoint x="530" y="30" />
            </Array>
          </mxGeometry>
        </mxCell>
        <mxCell id="Q_c3H6H86OWCeRdgw1Fb-35" value="add to" style="shape=rhombus;perimeter=rhombusPerimeter;whiteSpace=wrap;html=1;align=center;" vertex="1" parent="Q_c3H6H86OWCeRdgw1Fb-1">
          <mxGeometry x="530" y="10" width="120" height="60" as="geometry" />
        </mxCell>
        <mxCell id="Q_c3H6H86OWCeRdgw1Fb-36" value="" style="endArrow=none;html=1;rounded=0;edgeStyle=orthogonalEdgeStyle;curved=1;exitX=0;exitY=0;exitDx=0;exitDy=0;" edge="1" parent="Q_c3H6H86OWCeRdgw1Fb-1" source="Q_c3H6H86OWCeRdgw1Fb-8">
          <mxGeometry relative="1" as="geometry">
            <mxPoint x="720" y="10.059999999999999" as="sourcePoint" />
            <mxPoint x="650" y="40.059999999999775" as="targetPoint" />
          </mxGeometry>
        </mxCell>
        <mxCell id="Q_c3H6H86OWCeRdgw1Fb-38" value="Restaurant_id" style="ellipse;whiteSpace=wrap;html=1;align=center;fontStyle=4;" vertex="1" parent="Q_c3H6H86OWCeRdgw1Fb-1">
          <mxGeometry x="700" y="-110" width="100" height="40" as="geometry" />
        </mxCell>
        <mxCell id="Q_c3H6H86OWCeRdgw1Fb-39" value="quantity" style="ellipse;whiteSpace=wrap;html=1;align=center;" vertex="1" parent="Q_c3H6H86OWCeRdgw1Fb-1">
          <mxGeometry x="860" y="-10" width="100" height="40" as="geometry" />
        </mxCell>
        <mxCell id="Q_c3H6H86OWCeRdgw1Fb-40" value="food_id" style="ellipse;whiteSpace=wrap;html=1;align=center;fontStyle=4;" vertex="1" parent="Q_c3H6H86OWCeRdgw1Fb-1">
          <mxGeometry x="880" y="60" width="100" height="40" as="geometry" />
        </mxCell>
        <mxCell id="Q_c3H6H86OWCeRdgw1Fb-41" value="" style="endArrow=none;html=1;rounded=0;edgeStyle=orthogonalEdgeStyle;curved=1;exitX=0;exitY=0.5;exitDx=0;exitDy=0;entryX=0.75;entryY=0;entryDx=0;entryDy=0;" edge="1" parent="Q_c3H6H86OWCeRdgw1Fb-1" source="Q_c3H6H86OWCeRdgw1Fb-39" target="Q_c3H6H86OWCeRdgw1Fb-8">
          <mxGeometry relative="1" as="geometry">
            <mxPoint x="730" y="39.99999999999977" as="sourcePoint" />
            <mxPoint x="660" y="50.05999999999972" as="targetPoint" />
          </mxGeometry>
        </mxCell>
        <mxCell id="Q_c3H6H86OWCeRdgw1Fb-42" value="" style="endArrow=none;html=1;rounded=0;edgeStyle=orthogonalEdgeStyle;curved=1;exitX=0.5;exitY=1;exitDx=0;exitDy=0;entryX=0.25;entryY=0;entryDx=0;entryDy=0;" edge="1" parent="Q_c3H6H86OWCeRdgw1Fb-1" source="Q_c3H6H86OWCeRdgw1Fb-38" target="Q_c3H6H86OWCeRdgw1Fb-8">
          <mxGeometry relative="1" as="geometry">
            <mxPoint x="740" y="49.99999999999977" as="sourcePoint" />
            <mxPoint x="670" y="60.05999999999972" as="targetPoint" />
          </mxGeometry>
        </mxCell>
        <mxCell id="Q_c3H6H86OWCeRdgw1Fb-43" value="" style="endArrow=none;html=1;rounded=0;edgeStyle=orthogonalEdgeStyle;curved=1;exitX=0.25;exitY=1;exitDx=0;exitDy=0;entryX=0;entryY=0.5;entryDx=0;entryDy=0;" edge="1" parent="Q_c3H6H86OWCeRdgw1Fb-1" source="Q_c3H6H86OWCeRdgw1Fb-8" target="Q_c3H6H86OWCeRdgw1Fb-40">
          <mxGeometry relative="1" as="geometry">
            <mxPoint x="760" y="-60.00000000000023" as="sourcePoint" />
            <mxPoint x="755" y="39.99999999999977" as="targetPoint" />
          </mxGeometry>
        </mxCell>
        <mxCell id="Q_c3H6H86OWCeRdgw1Fb-44" value="payment" style="ellipse;whiteSpace=wrap;html=1;align=center;" vertex="1" parent="Q_c3H6H86OWCeRdgw1Fb-1">
          <mxGeometry x="850" y="-100" width="100" height="40" as="geometry" />
        </mxCell>
        <mxCell id="Q_c3H6H86OWCeRdgw1Fb-45" value="" style="endArrow=none;html=1;rounded=0;edgeStyle=orthogonalEdgeStyle;curved=1;exitX=0;exitY=1;exitDx=0;exitDy=0;entryX=0.75;entryY=0;entryDx=0;entryDy=0;" edge="1" parent="Q_c3H6H86OWCeRdgw1Fb-1" source="Q_c3H6H86OWCeRdgw1Fb-44">
          <mxGeometry relative="1" as="geometry">
            <mxPoint x="820" y="9.999999999999773" as="sourcePoint" />
            <mxPoint x="755" y="29.999999999999773" as="targetPoint" />
          </mxGeometry>
        </mxCell>
      </root>
    </mxGraphModel>
  </diagram>
</mxfile>
